<?xml version="1.0" encoding="UTF-8" standalone="no"?>
<svg
   version="1.1"
   x="0px"
   y="0px"
   viewBox="0 0 100 100"
   enable-background="new 0 0 100 100"
   xml:space="preserve"
   id="svg2"
   sodipodi:docname="Gopher_flask.svg"
   inkscape:version="1.4 (86a8ad7, 2024-10-11)"
   inkscape:export-filename="Gopher_flask.png"
   inkscape:export-xdpi="500"
   inkscape:export-ydpi="500"
   xmlns:inkscape="http://www.inkscape.org/namespaces/inkscape"
   xmlns:sodipodi="http://sodipodi.sourceforge.net/DTD/sodipodi-0.dtd"
   xmlns="http://www.w3.org/2000/svg"
   xmlns:svg="http://www.w3.org/2000/svg"><defs
     id="defs2" /><sodipodi:namedview
     id="namedview2"
     pagecolor="#ffffff"
     bordercolor="#000000"
     borderopacity="0.25"
     inkscape:showpageshadow="2"
     inkscape:pageopacity="0.0"
     inkscape:pagecheckerboard="0"
     inkscape:deskcolor="#d1d1d1"
     inkscape:zoom="5.6568543"
     inkscape:cx="8.0433396"
     inkscape:cy="56.922095"
     inkscape:window-width="2560"
     inkscape:window-height="1368"
     inkscape:window-x="-9"
     inkscape:window-y="-9"
     inkscape:window-maximized="1"
     inkscape:current-layer="layer3" /><g
     inkscape:groupmode="layer"
     id="layer3"
     inkscape:label="Layer 3"><path
       d="M 37.05653,27.533412 29.135271,49.23277 17.013332,84.9916 l 5.44545,7.931629 27.969926,5.28553 30.663382,-6.836067 3.155274,-9.90755 -20.692683,-53.93173 z"
       style="display:inline;opacity:1;fill:#6ad7e5;stroke-width:1.20126"
       id="path35"
       sodipodi:nodetypes="ccccccccc" /></g><g
     inkscape:groupmode="layer"
     id="layer2"
     inkscape:label="Layer 2"
     style="display:inline"><g
       id="g2"
       style="display:inline"
       transform="matrix(1.2802689,0,0,1.2802689,-13.379327,-13.571506)"><g
         id="g1"><path
           d="m 50.276,87.529 c 0,0 0,0 0,0 l -0.405,-0.002 -0.367,0.002 c -3.375,0 -20.428,-0.362 -25.485,-7.503 -0.461,-0.539 -1.815,-2.783 0.169,-9.069 0.924,-2.927 3.905,-10.654 7.061,-18.837 3.627,-9.402 7.731,-20.042 8.486,-22.901 V 17.884 c -0.088,-0.35 -0.419,-1.547 -0.984,-2.354 -0.327,-0.467 -1.007,-1.438 -0.559,-2.3 0.263,-0.504 0.776,-0.759 1.526,-0.759 h 20.564 c 0.75,0 1.263,0.255 1.525,0.759 0.448,0.861 -0.231,1.833 -0.559,2.3 -0.564,0.807 -0.896,2.004 -0.983,2.354 v 11.335 c 0.755,2.861 4.862,13.509 8.491,22.918 3.153,8.175 6.132,15.896 7.055,18.82 1.986,6.286 0.632,8.53 0.17,9.069 -5.056,7.141 -22.293,7.503 -25.705,7.503 z m -0.406,-2.002 0.405,0.002 v 0 c 1.991,0 19.564,-0.188 24.101,-6.697 l 0.111,-0.134 h -10e-4 c -0.007,0 1.155,-1.638 -0.582,-7.14 C 73,68.694 70.032,61.001 66.89,52.857 63.008,42.792 58.994,32.384 58.295,29.587 l -0.03,-0.242 0.023,-11.798 c 0.017,-0.074 0.408,-1.805 1.262,-3.077 H 40.449 c 0.853,1.271 1.245,3.001 1.262,3.076 l 0.024,0.218 -0.03,11.823 c -0.699,2.795 -4.71,13.195 -8.59,23.252 -3.145,8.153 -6.115,15.853 -7.02,18.72 -1.751,5.547 -0.557,7.167 -0.544,7.183 l 0.072,0.091 c 4.537,6.51 21.914,6.697 23.88,6.697 z"
           id="path1"
           inkscape:label="path1"
           style="display:inline" /></g></g></g><g
     inkscape:groupmode="layer"
     id="layer1"
     inkscape:label="Layer 1"
     style="display:inline"><path
       fill-rule="evenodd"
       clip-rule="evenodd"
       fill="#ffffff"
       stroke="#000000"
       stroke-width="0.513942"
       stroke-linecap="round"
       d="m 51.254154,65.135216 c 1.915376,11.134369 20.1155,8.190444 17.501344,-3.039188 -2.344115,-10.06995 -18.137917,-7.282599 -17.501344,3.039188"
       id="path14" /><path
       fill-rule="evenodd"
       clip-rule="evenodd"
       fill="#ffffff"
       stroke="#000000"
       stroke-width="0.498621"
       stroke-linecap="round"
       d="m 29.504985,66.936064 c 2.482495,9.693522 18.00219,7.211733 17.417222,-2.511832 C 46.221303,52.778765 27.131531,55.02586 29.504985,66.936064"
       id="path15" /><path
       fill-rule="evenodd"
       clip-rule="evenodd"
       fill="#ffffff"
       stroke="#000000"
       stroke-width="0.530183"
       stroke-linecap="round"
       d="m 53.449995,78.496178 c 0.0081,1.44758 0.328892,3.072764 0.05515,4.612767 -0.369539,0.698437 -1.094475,0.772296 -1.719385,1.054537 -0.864197,-0.135555 -1.590901,-0.70302 -1.937465,-1.511374 -0.221794,-1.757733 0.08271,-3.459619 0.138731,-5.218058 z"
       id="path16" /><g
       id="g17"
       transform="matrix(0.17672769,0,0,0.17672769,14.818386,48.494533)">
	<ellipse
   fill-rule="evenodd"
   clip-rule="evenodd"
   cx="107.324"
   cy="95.403999"
   rx="14.829"
   ry="16.062"
   id="ellipse16" />
	<ellipse
   fill-rule="evenodd"
   clip-rule="evenodd"
   fill="#ffffff"
   cx="114.069"
   cy="99.028999"
   rx="3.4960001"
   ry="4.0819998"
   id="ellipse17" />
</g><g
       id="g19"
       transform="matrix(0.17672769,0,0,0.17672769,14.818386,48.494533)">
	<ellipse
   fill-rule="evenodd"
   clip-rule="evenodd"
   cx="231.571"
   cy="91.403999"
   rx="14.582"
   ry="16.062"
   id="ellipse18" />
	<ellipse
   fill-rule="evenodd"
   clip-rule="evenodd"
   fill="#ffffff"
   cx="238.20399"
   cy="95.028999"
   rx="3.438"
   ry="4.0819998"
   id="ellipse19" />
</g><path
       fill-rule="evenodd"
       clip-rule="evenodd"
       fill="#ffffff"
       stroke="#000000"
       stroke-width="0.530183"
       stroke-linecap="round"
       d="m 45.960807,78.338536 c -1.143429,2.771094 0.637633,8.312384 3.740088,4.225205 -0.221794,-1.757731 0.08271,-3.459617 0.138731,-5.218057 z"
       id="path19" /><g
       id="g21"
       transform="matrix(0.17672769,0,0,0.17672769,14.818386,48.494533)">
	<path
   fill-rule="evenodd"
   clip-rule="evenodd"
   fill="#f6d2a2"
   stroke="#231f20"
   stroke-width="3"
   stroke-linecap="round"
   d="m 178.431,138.673 c -12.059,1.028 -21.916,15.366 -15.646,26.709 8.303,15.024 26.836,-1.329 38.379,0.203 13.285,0.272 24.17,14.047 34.84,2.49 11.867,-12.854 -5.109,-25.373 -18.377,-30.97 z"
   id="path20" />
	<path
   fill-rule="evenodd"
   clip-rule="evenodd"
   d="m 176.913,138.045 c -0.893,-20.891 38.938,-23.503 43.642,-6.016 4.692,17.446 -41.681,21.498 -43.642,6.016 -1.565,-12.363 0,0 0,0 z"
   id="path21" />
</g></g></svg>
